<svg width="198" height="231" viewBox="0 0 198 231" fill="none" xmlns="http://www.w3.org/2000/svg">
<path d="M38.3359 25.9997H37.3353V17.9997H38.3359C38.5201 17.9997 38.6693 17.8504 38.6693 17.6663C38.6693 17.4823 38.5201 17.333 38.3359 17.333H25.6693C25.4852 17.333 25.3359 17.4823 25.3359 17.6663C25.3359 17.8504 25.4852 17.9997 25.6693 17.9997H26.6693V25.9997H25.6693C25.4852 25.9997 25.3359 26.1489 25.3359 26.333C25.3359 26.5171 25.4852 26.6663 25.6693 26.6663H31.6686V27.6184L28.1452 30.0589C28.0552 30.1213 28.0016 30.2238 28.0017 30.3332C28.0018 30.5173 28.1512 30.6665 28.3353 30.6663C28.4032 30.6663 28.4695 30.6456 28.5254 30.6071L31.6686 28.4299V30.3334C31.6687 30.5174 31.818 30.6665 32.002 30.6663C32.1859 30.6662 32.3354 30.517 32.3353 30.333V28.4299L35.4785 30.6071C35.5344 30.6456 35.6007 30.6663 35.6686 30.6663C35.7781 30.6664 35.8806 30.6128 35.9429 30.5228C36.0478 30.3715 36.0101 30.1638 35.8587 30.0589L32.3353 27.6184V26.6663H38.3359C38.5201 26.6663 38.6693 26.5171 38.6693 26.333C38.6693 26.1489 38.5201 25.9997 38.3359 25.9997ZM36.6686 25.9997H27.3359V17.9997H36.6686V25.9997ZM30.3359 24.333H31.9492C32.0376 24.333 32.1224 24.2979 32.1849 24.2354L34.5717 21.8485C34.7018 21.7183 34.7018 21.5074 34.5716 21.3773L32.9577 19.764C32.8276 19.6339 32.6165 19.6338 32.4863 19.764L30.1003 22.1507C30.0377 22.2132 30.0026 22.298 30.0026 22.3864V24C30.0027 24.184 30.152 24.3331 30.3359 24.333ZM30.6693 22.5244L32.722 20.471L33.8646 21.613L31.8112 23.6663H30.6693V22.5244Z" fill="white"/>
<path d="M57.6562 23.3262V24.3994H52.2695V23.3262H57.6562ZM52.4746 19.0469V29H51.1553V19.0469H52.4746ZM58.8047 19.0469V29H57.4922V19.0469H58.8047ZM60.623 25.3838V25.2266C60.623 24.6934 60.7005 24.1989 60.8555 23.7432C61.0104 23.2829 61.2337 22.8841 61.5254 22.5469C61.8171 22.2051 62.1702 21.9408 62.585 21.7539C62.9997 21.5625 63.4645 21.4668 63.9795 21.4668C64.499 21.4668 64.9661 21.5625 65.3809 21.7539C65.8001 21.9408 66.1556 22.2051 66.4473 22.5469C66.7435 22.8841 66.9691 23.2829 67.124 23.7432C67.279 24.1989 67.3564 24.6934 67.3564 25.2266V25.3838C67.3564 25.917 67.279 26.4115 67.124 26.8672C66.9691 27.3229 66.7435 27.7217 66.4473 28.0635C66.1556 28.4007 65.8024 28.665 65.3877 28.8564C64.9775 29.0433 64.5127 29.1367 63.9932 29.1367C63.4736 29.1367 63.0065 29.0433 62.5918 28.8564C62.1771 28.665 61.8216 28.4007 61.5254 28.0635C61.2337 27.7217 61.0104 27.3229 60.8555 26.8672C60.7005 26.4115 60.623 25.917 60.623 25.3838ZM61.8877 25.2266V25.3838C61.8877 25.7529 61.931 26.1016 62.0176 26.4297C62.1042 26.7533 62.234 27.0404 62.4072 27.291C62.585 27.5417 62.806 27.7399 63.0703 27.8857C63.3346 28.027 63.6423 28.0977 63.9932 28.0977C64.3395 28.0977 64.6426 28.027 64.9023 27.8857C65.1667 27.7399 65.3854 27.5417 65.5586 27.291C65.7318 27.0404 65.8617 26.7533 65.9482 26.4297C66.0394 26.1016 66.085 25.7529 66.085 25.3838V25.2266C66.085 24.862 66.0394 24.5179 65.9482 24.1943C65.8617 23.8662 65.7295 23.5768 65.5518 23.3262C65.3786 23.071 65.1598 22.8704 64.8955 22.7246C64.6357 22.5788 64.3304 22.5059 63.9795 22.5059C63.6331 22.5059 63.3278 22.5788 63.0635 22.7246C62.8037 22.8704 62.585 23.071 62.4072 23.3262C62.234 23.5768 62.1042 23.8662 62.0176 24.1943C61.931 24.5179 61.8877 24.862 61.8877 25.2266ZM70.2002 23.0732V29H68.9287V21.6035H70.1318L70.2002 23.0732ZM69.9404 25.0215L69.3525 25.001C69.3571 24.4951 69.4232 24.028 69.5508 23.5996C69.6784 23.1667 69.8675 22.7907 70.1182 22.4717C70.3688 22.1527 70.681 21.9066 71.0547 21.7334C71.4284 21.5557 71.8613 21.4668 72.3535 21.4668C72.6999 21.4668 73.0189 21.5169 73.3105 21.6172C73.6022 21.7129 73.8551 21.8656 74.0693 22.0752C74.2835 22.2848 74.4499 22.5537 74.5684 22.8818C74.6868 23.21 74.7461 23.6064 74.7461 24.0713V29H73.4814V24.1328C73.4814 23.7454 73.4154 23.4355 73.2832 23.2031C73.1556 22.9707 72.9733 22.8021 72.7363 22.6973C72.4993 22.5879 72.2214 22.5332 71.9023 22.5332C71.5286 22.5332 71.2165 22.5993 70.9658 22.7314C70.7152 22.8636 70.5146 23.0459 70.3643 23.2783C70.2139 23.5107 70.1045 23.7773 70.0361 24.0781C69.9723 24.3743 69.9404 24.6888 69.9404 25.0215ZM74.7324 24.3242L73.8848 24.584C73.8893 24.1784 73.9554 23.7887 74.083 23.415C74.2152 23.0413 74.4043 22.7087 74.6504 22.417C74.901 22.1253 75.2087 21.8952 75.5732 21.7266C75.9378 21.5534 76.3548 21.4668 76.8242 21.4668C77.2207 21.4668 77.5716 21.5192 77.877 21.624C78.1868 21.7288 78.4466 21.8906 78.6562 22.1094C78.8704 22.3236 79.0322 22.5993 79.1416 22.9365C79.251 23.2738 79.3057 23.6748 79.3057 24.1396V29H78.0342V24.126C78.0342 23.7113 77.9681 23.39 77.8359 23.1621C77.7083 22.9297 77.526 22.7679 77.2891 22.6768C77.0566 22.5811 76.7786 22.5332 76.4551 22.5332C76.1771 22.5332 75.931 22.5811 75.7168 22.6768C75.5026 22.7725 75.3226 22.9046 75.1768 23.0732C75.0309 23.2373 74.9193 23.4264 74.8418 23.6406C74.7689 23.8548 74.7324 24.0827 74.7324 24.3242ZM84.2891 29.1367C83.7741 29.1367 83.307 29.0501 82.8877 28.877C82.473 28.6992 82.1152 28.4508 81.8145 28.1318C81.5182 27.8128 81.2904 27.4346 81.1309 26.9971C80.9714 26.5596 80.8916 26.0811 80.8916 25.5615V25.2744C80.8916 24.6729 80.9805 24.1374 81.1582 23.668C81.3359 23.194 81.5775 22.793 81.8828 22.4648C82.1882 22.1367 82.5345 21.8883 82.9219 21.7197C83.3092 21.5511 83.7103 21.4668 84.125 21.4668C84.6536 21.4668 85.1094 21.5579 85.4922 21.7402C85.8796 21.9225 86.1963 22.1777 86.4424 22.5059C86.6885 22.8294 86.8708 23.2122 86.9893 23.6543C87.1077 24.0918 87.167 24.5703 87.167 25.0898V25.6572H81.6436V24.625H85.9023V24.5293C85.8841 24.2012 85.8158 23.8822 85.6973 23.5723C85.5833 23.2624 85.401 23.0072 85.1504 22.8066C84.8997 22.6061 84.5579 22.5059 84.125 22.5059C83.8379 22.5059 83.5736 22.5674 83.332 22.6904C83.0905 22.8089 82.8831 22.9867 82.71 23.2236C82.5368 23.4606 82.4023 23.75 82.3066 24.0918C82.2109 24.4336 82.1631 24.8278 82.1631 25.2744V25.5615C82.1631 25.9124 82.2109 26.2428 82.3066 26.5527C82.4069 26.8581 82.5505 27.127 82.7373 27.3594C82.9287 27.5918 83.1589 27.7741 83.4277 27.9062C83.7012 28.0384 84.0111 28.1045 84.3574 28.1045C84.804 28.1045 85.1823 28.0133 85.4922 27.8311C85.8021 27.6488 86.0732 27.4049 86.3057 27.0996L87.0713 27.708C86.9118 27.9495 86.709 28.1797 86.4629 28.3984C86.2168 28.6172 85.9137 28.7949 85.5537 28.9316C85.1982 29.0684 84.7767 29.1367 84.2891 29.1367Z" fill="white"/>
<path d="M31.9987 84.0833C32.2288 84.0833 32.4154 83.8968 32.4154 83.6667C32.4154 83.4366 32.2288 83.25 31.9987 83.25C31.7686 83.25 31.582 83.4366 31.582 83.6667C31.582 83.8968 31.7686 84.0833 31.9987 84.0833ZM39.9987 82.3333C39.9987 81.597 39.4017 81 38.6654 81C37.929 81 37.332 81.597 37.332 82.3333C37.332 83.0697 37.929 83.6667 38.6654 83.6667C38.7201 83.6666 38.7722 83.6568 38.8252 83.6504C38.9296 83.9799 38.9983 84.3198 38.9987 84.6667C39.0053 86.2104 37.9421 87.5293 36.4633 87.8881C36.2181 87.4285 35.7684 87.1 35.2321 87.0237C36.113 86.175 36.6638 84.9862 36.6654 83.6667C36.6654 81.0894 34.576 79 31.9987 79C29.4214 79 27.332 81.0894 27.332 83.6667C27.332 84.9861 27.8819 86.1753 28.7622 87.024C27.9552 87.1404 27.3328 87.8276 27.332 88.6667V89.3333C27.3329 90.2535 28.0786 90.9991 28.9987 91H34.9987C35.9188 90.9991 36.6645 90.2535 36.6654 89.3333V88.6667C36.6653 88.6182 36.6551 88.5727 36.651 88.5253C38.4104 88.0843 39.6728 86.5093 39.6654 84.6667C39.6652 84.2351 39.5924 83.8081 39.4576 83.3995C39.7838 83.1565 39.9981 82.7714 39.9987 82.3333ZM27.9987 83.6667C27.9987 81.4575 29.7896 79.6667 31.9987 79.6667C34.2068 79.6691 35.9963 81.4585 35.9987 83.6667C35.9987 85.8758 34.2078 87.6667 31.9987 87.6667C29.7896 87.6667 27.9987 85.8758 27.9987 83.6667ZM35.9987 89.3333C35.9981 89.8854 35.5507 90.3327 34.9987 90.3333H28.9987C28.4467 90.3327 27.9993 89.8854 27.9987 89.3333V88.6667C27.9993 88.1146 28.4467 87.6673 28.9987 87.6667H29.604C30.3048 88.0872 31.122 88.3333 31.9987 88.3333C32.8738 88.3323 33.6895 88.0862 34.3893 87.6667H34.9987C35.5507 87.6673 35.9981 88.1146 35.9987 88.6667V89.3333ZM38.9307 82.9437C38.929 82.9443 38.9274 82.944 38.9258 82.9447C38.9235 82.9456 38.922 82.9477 38.9198 82.9486C38.8413 82.9811 38.7556 83 38.6654 83C38.2972 83 37.9987 82.7015 37.9987 82.3333C37.9987 81.9651 38.2972 81.6667 38.6654 81.6667C39.0334 81.6669 39.3318 81.9653 39.332 82.3333C39.332 82.607 39.1665 82.841 38.9307 82.9437Z" fill="white"/>
<path d="M52.4746 80.0469V90H51.1553V80.0469H52.4746ZM56.6445 84.5244V85.6045H52.1875V84.5244H56.6445ZM57.3213 80.0469V81.127H52.1875V80.0469H57.3213ZM61.6211 90.1367C61.1061 90.1367 60.639 90.0501 60.2197 89.877C59.805 89.6992 59.4473 89.4508 59.1465 89.1318C58.8503 88.8128 58.6224 88.4346 58.4629 87.9971C58.3034 87.5596 58.2236 87.0811 58.2236 86.5615V86.2744C58.2236 85.6729 58.3125 85.1374 58.4902 84.668C58.668 84.194 58.9095 83.793 59.2148 83.4648C59.5202 83.1367 59.8665 82.8883 60.2539 82.7197C60.6413 82.5511 61.0423 82.4668 61.457 82.4668C61.9857 82.4668 62.4414 82.5579 62.8242 82.7402C63.2116 82.9225 63.5283 83.1777 63.7744 83.5059C64.0205 83.8294 64.2028 84.2122 64.3213 84.6543C64.4398 85.0918 64.499 85.5703 64.499 86.0898V86.6572H58.9756V85.625H63.2344V85.5293C63.2161 85.2012 63.1478 84.8822 63.0293 84.5723C62.9154 84.2624 62.7331 84.0072 62.4824 83.8066C62.2318 83.6061 61.89 83.5059 61.457 83.5059C61.1699 83.5059 60.9056 83.5674 60.6641 83.6904C60.4225 83.8089 60.2152 83.9867 60.042 84.2236C59.8688 84.4606 59.7344 84.75 59.6387 85.0918C59.543 85.4336 59.4951 85.8278 59.4951 86.2744V86.5615C59.4951 86.9124 59.543 87.2428 59.6387 87.5527C59.7389 87.8581 59.8825 88.127 60.0693 88.3594C60.2607 88.5918 60.4909 88.7741 60.7598 88.9062C61.0332 89.0384 61.3431 89.1045 61.6895 89.1045C62.1361 89.1045 62.5143 89.0133 62.8242 88.8311C63.1341 88.6488 63.4053 88.4049 63.6377 88.0996L64.4033 88.708C64.2438 88.9495 64.041 89.1797 63.7949 89.3984C63.5488 89.6172 63.2458 89.7949 62.8857 89.9316C62.5303 90.0684 62.1087 90.1367 61.6211 90.1367ZM69.0449 90.1367C68.5299 90.1367 68.0628 90.0501 67.6436 89.877C67.2288 89.6992 66.8711 89.4508 66.5703 89.1318C66.2741 88.8128 66.0462 88.4346 65.8867 87.9971C65.7272 87.5596 65.6475 87.0811 65.6475 86.5615V86.2744C65.6475 85.6729 65.7363 85.1374 65.9141 84.668C66.0918 84.194 66.3333 83.793 66.6387 83.4648C66.944 83.1367 67.2904 82.8883 67.6777 82.7197C68.0651 82.5511 68.4661 82.4668 68.8809 82.4668C69.4095 82.4668 69.8652 82.5579 70.248 82.7402C70.6354 82.9225 70.9521 83.1777 71.1982 83.5059C71.4443 83.8294 71.6266 84.2122 71.7451 84.6543C71.8636 85.0918 71.9229 85.5703 71.9229 86.0898V86.6572H66.3994V85.625H70.6582V85.5293C70.64 85.2012 70.5716 84.8822 70.4531 84.5723C70.3392 84.2624 70.1569 84.0072 69.9062 83.8066C69.6556 83.6061 69.3138 83.5059 68.8809 83.5059C68.5938 83.5059 68.3294 83.5674 68.0879 83.6904C67.8464 83.8089 67.639 83.9867 67.4658 84.2236C67.2926 84.4606 67.1582 84.75 67.0625 85.0918C66.9668 85.4336 66.9189 85.8278 66.9189 86.2744V86.5615C66.9189 86.9124 66.9668 87.2428 67.0625 87.5527C67.1628 87.8581 67.3063 88.127 67.4932 88.3594C67.6846 88.5918 67.9147 88.7741 68.1836 88.9062C68.457 89.0384 68.7669 89.1045 69.1133 89.1045C69.5599 89.1045 69.9382 89.0133 70.248 88.8311C70.5579 88.6488 70.8291 88.4049 71.0615 88.0996L71.8271 88.708C71.6676 88.9495 71.4648 89.1797 71.2188 89.3984C70.9727 89.6172 70.6696 89.7949 70.3096 89.9316C69.9541 90.0684 69.5326 90.1367 69.0449 90.1367ZM78.0615 88.5645V79.5H79.333V90H78.1709L78.0615 88.5645ZM73.085 86.3838V86.2402C73.085 85.6751 73.1533 85.1624 73.29 84.7021C73.4313 84.2373 73.6296 83.8385 73.8848 83.5059C74.1445 83.1732 74.4521 82.918 74.8076 82.7402C75.1676 82.5579 75.5687 82.4668 76.0107 82.4668C76.4756 82.4668 76.8812 82.5488 77.2275 82.7129C77.5785 82.8724 77.8747 83.1071 78.1162 83.417C78.3623 83.7223 78.556 84.0915 78.6973 84.5244C78.8385 84.9574 78.9365 85.4473 78.9912 85.9941V86.623C78.9411 87.1654 78.8431 87.653 78.6973 88.0859C78.556 88.5189 78.3623 88.888 78.1162 89.1934C77.8747 89.4987 77.5785 89.7334 77.2275 89.8975C76.8766 90.057 76.4665 90.1367 75.9971 90.1367C75.5641 90.1367 75.1676 90.0433 74.8076 89.8564C74.4521 89.6696 74.1445 89.4076 73.8848 89.0703C73.6296 88.7331 73.4313 88.3366 73.29 87.8809C73.1533 87.4206 73.085 86.9215 73.085 86.3838ZM74.3564 86.2402V86.3838C74.3564 86.7529 74.3929 87.0993 74.4658 87.4229C74.5433 87.7464 74.6618 88.0312 74.8213 88.2773C74.9808 88.5234 75.1836 88.7171 75.4297 88.8584C75.6758 88.9951 75.9697 89.0635 76.3115 89.0635C76.7308 89.0635 77.0749 88.9746 77.3438 88.7969C77.6172 88.6191 77.8359 88.3844 78 88.0928C78.1641 87.8011 78.2917 87.4844 78.3828 87.1426V85.4951C78.3281 85.2445 78.2484 85.0029 78.1436 84.7705C78.0433 84.5335 77.9111 84.3239 77.7471 84.1416C77.5876 83.9548 77.3893 83.8066 77.1523 83.6973C76.9199 83.5879 76.6442 83.5332 76.3252 83.5332C75.9788 83.5332 75.6803 83.6061 75.4297 83.752C75.1836 83.8932 74.9808 84.0892 74.8213 84.3398C74.6618 84.5859 74.5433 84.873 74.4658 85.2012C74.3929 85.5247 74.3564 85.8711 74.3564 86.2402Z" fill="white"/>
<g clip-path="url(#clip0_809_321)">
<path d="M28.1529 145.185C27.764 145.582 27.5557 146.12 27.5557 146.673C27.5557 147.835 28.4723 148.784 29.6112 148.784C30.1668 148.784 30.6807 148.571 31.0696 148.161C31.2779 147.948 31.4307 147.693 31.5418 147.424H33.4723C33.764 148.217 34.514 148.784 35.389 148.784C35.9446 148.784 36.4584 148.571 36.8473 148.161C37.2362 147.764 37.4584 147.24 37.4584 146.673C37.4584 145.511 36.5279 144.562 35.389 144.562C35.0557 144.562 34.7362 144.647 34.4446 144.789C34.3196 144.604 34.1807 144.42 34.014 144.264C33.9168 144.165 33.764 144.165 33.6529 144.25C33.639 144.264 32.5001 145.129 31.4168 144.335L30.8473 143.429C31.2223 143.896 31.8057 144.208 32.4446 144.208C33.0001 144.208 33.514 143.995 33.9029 143.584C34.2918 143.188 34.514 142.664 34.514 142.097C34.514 140.949 33.5834 140 32.4446 140C31.889 140 31.3751 140.213 30.9862 140.623C30.5973 141.02 30.3751 141.544 30.3751 142.111C30.3751 142.451 30.4584 142.777 30.5973 143.06L29.9029 141.969C29.6946 141.643 29.2501 141.544 28.9307 141.757C28.6112 141.969 28.514 142.423 28.7223 142.749L29.889 144.59C29.7918 144.576 29.6946 144.562 29.5973 144.562C29.0557 144.576 28.5418 144.789 28.1529 145.185ZM31.389 141.02C31.6668 140.737 32.0418 140.567 32.4446 140.567C33.2779 140.567 33.9446 141.261 33.9446 142.097C33.9446 142.508 33.7918 142.89 33.5001 143.188C33.2223 143.485 32.8334 143.641 32.4307 143.641C31.5973 143.641 30.9307 142.947 30.9307 142.111C30.9446 141.7 31.0973 141.318 31.389 141.02ZM34.3196 145.582C34.6112 145.285 34.9862 145.129 35.389 145.129C36.2223 145.129 36.9029 145.823 36.9029 146.673C36.9029 147.084 36.7501 147.466 36.4584 147.764C36.1668 148.047 35.7918 148.217 35.389 148.217C34.5557 148.217 33.8751 147.523 33.8751 146.673C33.889 146.262 34.0418 145.88 34.3196 145.582ZM29.1251 142.494C29.0834 142.437 29.0834 142.366 29.0973 142.309C29.1112 142.238 29.1529 142.182 29.2084 142.153C29.3196 142.083 29.4862 142.111 29.5557 142.224L30.9029 144.349L31.2501 144.902L31.2779 144.93C31.3751 144.987 31.4723 145.044 31.5696 145.086C31.6529 145.115 31.7362 145.157 31.8196 145.185C32.6807 145.44 33.4723 145.072 33.8057 144.874C33.889 144.959 33.9446 145.058 34.014 145.157C34.0001 145.171 33.9723 145.2 33.9584 145.214C33.5696 145.61 33.3473 146.135 33.3473 146.701C33.3473 146.758 33.3473 146.829 33.3612 146.885H31.6946C31.6946 146.829 31.7084 146.758 31.7084 146.701C31.7084 145.908 31.264 145.214 30.6251 144.845L30.5973 144.803L29.1251 142.494ZM31.1251 146.673C31.1251 147.084 30.9723 147.466 30.6807 147.764C30.389 148.061 30.014 148.217 29.6112 148.217C28.7779 148.217 28.1112 147.523 28.1112 146.673C28.1112 146.262 28.264 145.88 28.5557 145.582C28.8473 145.285 29.2223 145.129 29.6251 145.129C30.4446 145.143 31.1251 145.823 31.1251 146.673Z" fill="white"/>
<path d="M27.0833 151.915C27.1389 151.972 27.2083 152 27.2778 152H31.9444C32.0972 152 32.2222 151.872 32.2222 151.731C32.2222 151.66 32.2639 149.875 31.1806 148.855C31.0833 148.756 30.9306 148.756 30.8194 148.841C30.7639 148.883 29.5972 149.762 28.4861 148.841C28.375 148.756 28.2361 148.756 28.125 148.841C28.0833 148.883 27.0278 149.832 27 151.702C27 151.787 27.0278 151.858 27.0833 151.915ZM28.3333 149.436C29.3194 150.102 30.3611 149.79 30.9444 149.436C31.4861 150.073 31.625 150.994 31.6528 151.447H27.5556C27.6528 150.385 28.0972 149.719 28.3333 149.436Z" fill="white"/>
<path d="M36.5973 148.826C36.5417 148.869 35.3751 149.747 34.2639 148.826C34.1528 148.741 34.0139 148.741 33.9028 148.826C33.8612 148.869 32.8056 149.818 32.7778 151.688C32.7778 151.759 32.8056 151.844 32.8612 151.887C32.9167 151.943 32.9862 151.972 33.0556 151.972H37.7223C37.8751 151.972 38.0001 151.844 38.0001 151.702C38.0001 151.632 38.0417 149.847 36.9584 148.826C36.8612 148.756 36.7084 148.741 36.5973 148.826ZM37.4445 151.433H33.3473C33.4306 150.385 33.8751 149.719 34.1112 149.436C35.0973 150.102 36.1389 149.79 36.7223 149.436C37.2778 150.059 37.4028 150.98 37.4445 151.433Z" fill="white"/>
</g>
<path d="M54.8398 141.929L51.5449 151H50.1982L53.9922 141.047H54.8604L54.8398 141.929ZM57.6016 151L54.2998 141.929L54.2793 141.047H55.1475L58.9551 151H57.6016ZM57.4307 147.315V148.396H51.8389V147.315H57.4307ZM61.3613 145.183V151H60.0967V143.604H61.293L61.3613 145.183ZM61.0605 147.021L60.5342 147.001C60.5387 146.495 60.6139 146.028 60.7598 145.6C60.9056 145.167 61.1107 144.791 61.375 144.472C61.6393 144.153 61.9538 143.907 62.3184 143.733C62.6875 143.556 63.0954 143.467 63.542 143.467C63.9066 143.467 64.2347 143.517 64.5264 143.617C64.818 143.713 65.0664 143.868 65.2715 144.082C65.4811 144.296 65.6406 144.574 65.75 144.916C65.8594 145.253 65.9141 145.666 65.9141 146.153V151H64.6426V146.14C64.6426 145.752 64.5856 145.442 64.4717 145.21C64.3577 144.973 64.1914 144.802 63.9727 144.697C63.7539 144.588 63.485 144.533 63.166 144.533C62.8516 144.533 62.5645 144.599 62.3047 144.731C62.0495 144.864 61.8285 145.046 61.6416 145.278C61.4593 145.511 61.3158 145.777 61.2109 146.078C61.1107 146.374 61.0605 146.689 61.0605 147.021ZM72.1963 149.735V145.928C72.1963 145.636 72.137 145.383 72.0186 145.169C71.9046 144.95 71.7314 144.782 71.499 144.663C71.2666 144.545 70.9795 144.485 70.6377 144.485C70.3187 144.485 70.0384 144.54 69.7969 144.649C69.5599 144.759 69.373 144.902 69.2363 145.08C69.1042 145.258 69.0381 145.449 69.0381 145.654H67.7734C67.7734 145.39 67.8418 145.128 67.9785 144.868C68.1152 144.608 68.3112 144.374 68.5664 144.164C68.8262 143.95 69.1361 143.781 69.4961 143.658C69.8607 143.531 70.2663 143.467 70.7129 143.467C71.2507 143.467 71.7246 143.558 72.1348 143.74C72.5495 143.923 72.873 144.198 73.1055 144.567C73.3424 144.932 73.4609 145.39 73.4609 145.941V149.387C73.4609 149.633 73.4814 149.895 73.5225 150.173C73.568 150.451 73.6341 150.69 73.7207 150.891V151H72.4014C72.3376 150.854 72.2874 150.66 72.251 150.419C72.2145 150.173 72.1963 149.945 72.1963 149.735ZM72.415 146.516L72.4287 147.404H71.1504C70.7904 147.404 70.4691 147.434 70.1865 147.493C69.904 147.548 69.667 147.632 69.4756 147.746C69.2842 147.86 69.1383 148.004 69.0381 148.177C68.9378 148.345 68.8877 148.544 68.8877 148.771C68.8877 149.004 68.9401 149.216 69.0449 149.407C69.1497 149.599 69.307 149.751 69.5166 149.865C69.7308 149.975 69.9928 150.029 70.3027 150.029C70.6901 150.029 71.0319 149.947 71.3281 149.783C71.6243 149.619 71.859 149.419 72.0322 149.182C72.21 148.945 72.3057 148.715 72.3193 148.491L72.8594 149.1C72.8275 149.291 72.7409 149.503 72.5996 149.735C72.4583 149.968 72.2692 150.191 72.0322 150.405C71.7998 150.615 71.5218 150.79 71.1982 150.932C70.8792 151.068 70.5192 151.137 70.1182 151.137C69.6169 151.137 69.1771 151.039 68.7988 150.843C68.4251 150.647 68.1335 150.385 67.9238 150.057C67.7188 149.724 67.6162 149.353 67.6162 148.942C67.6162 148.546 67.6937 148.197 67.8486 147.896C68.0036 147.591 68.2269 147.338 68.5186 147.138C68.8102 146.933 69.1611 146.778 69.5713 146.673C69.9814 146.568 70.4395 146.516 70.9453 146.516H72.415ZM76.8242 140.5V151H75.5527V140.5H76.8242ZM80.9326 150.234L82.9902 143.604H84.3438L81.377 152.142C81.3086 152.324 81.2174 152.52 81.1035 152.729C80.9941 152.944 80.8529 153.146 80.6797 153.338C80.5065 153.529 80.2969 153.684 80.0508 153.803C79.8092 153.926 79.5199 153.987 79.1826 153.987C79.0824 153.987 78.9548 153.974 78.7998 153.946C78.6449 153.919 78.5355 153.896 78.4717 153.878L78.4648 152.853C78.5013 152.857 78.5583 152.862 78.6357 152.866C78.7178 152.875 78.7747 152.88 78.8066 152.88C79.0938 152.88 79.3376 152.841 79.5381 152.764C79.7386 152.691 79.9072 152.565 80.0439 152.388C80.1852 152.215 80.306 151.975 80.4062 151.67L80.9326 150.234ZM79.4219 143.604L81.3428 149.346L81.6709 150.679L80.7617 151.144L78.041 143.604H79.4219ZM89.792 149.038C89.792 148.856 89.751 148.687 89.6689 148.532C89.5915 148.373 89.4297 148.229 89.1836 148.102C88.9421 147.969 88.5775 147.855 88.0898 147.76C87.6797 147.673 87.3083 147.571 86.9756 147.452C86.6475 147.334 86.3672 147.19 86.1348 147.021C85.9069 146.853 85.7314 146.655 85.6084 146.427C85.4854 146.199 85.4238 145.932 85.4238 145.627C85.4238 145.335 85.4876 145.06 85.6152 144.8C85.7474 144.54 85.932 144.31 86.1689 144.109C86.4105 143.909 86.6999 143.752 87.0371 143.638C87.3743 143.524 87.7503 143.467 88.165 143.467C88.7575 143.467 89.2633 143.572 89.6826 143.781C90.1019 143.991 90.4232 144.271 90.6465 144.622C90.8698 144.968 90.9814 145.354 90.9814 145.777H89.7168C89.7168 145.572 89.6553 145.374 89.5322 145.183C89.4137 144.987 89.2383 144.825 89.0059 144.697C88.778 144.57 88.4977 144.506 88.165 144.506C87.8141 144.506 87.5293 144.561 87.3105 144.67C87.0964 144.775 86.9391 144.909 86.8389 145.073C86.7432 145.237 86.6953 145.41 86.6953 145.593C86.6953 145.729 86.7181 145.853 86.7637 145.962C86.8138 146.067 86.9004 146.165 87.0234 146.256C87.1465 146.342 87.3197 146.424 87.543 146.502C87.7663 146.579 88.0511 146.657 88.3975 146.734C89.0036 146.871 89.5026 147.035 89.8945 147.227C90.2865 147.418 90.5781 147.653 90.7695 147.931C90.9609 148.209 91.0566 148.546 91.0566 148.942C91.0566 149.266 90.9883 149.562 90.8516 149.831C90.7194 150.1 90.5257 150.332 90.2705 150.528C90.0199 150.72 89.7191 150.87 89.3682 150.979C89.0218 151.084 88.6322 151.137 88.1992 151.137C87.5475 151.137 86.9961 151.021 86.5449 150.788C86.0938 150.556 85.752 150.255 85.5195 149.886C85.2871 149.517 85.1709 149.127 85.1709 148.717H86.4424C86.4606 149.063 86.5609 149.339 86.7432 149.544C86.9255 149.744 87.1488 149.888 87.4131 149.975C87.6774 150.057 87.9395 150.098 88.1992 150.098C88.5456 150.098 88.835 150.052 89.0674 149.961C89.3044 149.87 89.4844 149.744 89.6074 149.585C89.7305 149.425 89.792 149.243 89.792 149.038ZM94.0918 143.604V151H92.8203V143.604H94.0918ZM92.7246 141.642C92.7246 141.437 92.7861 141.263 92.9092 141.122C93.0368 140.981 93.2236 140.91 93.4697 140.91C93.7113 140.91 93.8958 140.981 94.0234 141.122C94.1556 141.263 94.2217 141.437 94.2217 141.642C94.2217 141.838 94.1556 142.006 94.0234 142.147C93.8958 142.284 93.7113 142.353 93.4697 142.353C93.2236 142.353 93.0368 142.284 92.9092 142.147C92.7861 142.006 92.7246 141.838 92.7246 141.642ZM100.429 149.038C100.429 148.856 100.388 148.687 100.306 148.532C100.228 148.373 100.066 148.229 99.8203 148.102C99.5788 147.969 99.2142 147.855 98.7266 147.76C98.3164 147.673 97.945 147.571 97.6123 147.452C97.2842 147.334 97.0039 147.19 96.7715 147.021C96.5436 146.853 96.3682 146.655 96.2451 146.427C96.1221 146.199 96.0605 145.932 96.0605 145.627C96.0605 145.335 96.1243 145.06 96.252 144.8C96.3841 144.54 96.5687 144.31 96.8057 144.109C97.0472 143.909 97.3366 143.752 97.6738 143.638C98.0111 143.524 98.387 143.467 98.8018 143.467C99.3942 143.467 99.9001 143.572 100.319 143.781C100.739 143.991 101.06 144.271 101.283 144.622C101.507 144.968 101.618 145.354 101.618 145.777H100.354C100.354 145.572 100.292 145.374 100.169 145.183C100.05 144.987 99.875 144.825 99.6426 144.697C99.4147 144.57 99.1344 144.506 98.8018 144.506C98.4508 144.506 98.166 144.561 97.9473 144.67C97.7331 144.775 97.5758 144.909 97.4756 145.073C97.3799 145.237 97.332 145.41 97.332 145.593C97.332 145.729 97.3548 145.853 97.4004 145.962C97.4505 146.067 97.5371 146.165 97.6602 146.256C97.7832 146.342 97.9564 146.424 98.1797 146.502C98.403 146.579 98.6878 146.657 99.0342 146.734C99.6403 146.871 100.139 147.035 100.531 147.227C100.923 147.418 101.215 147.653 101.406 147.931C101.598 148.209 101.693 148.546 101.693 148.942C101.693 149.266 101.625 149.562 101.488 149.831C101.356 150.1 101.162 150.332 100.907 150.528C100.657 150.72 100.356 150.87 100.005 150.979C99.6585 151.084 99.2689 151.137 98.8359 151.137C98.1842 151.137 97.6328 151.021 97.1816 150.788C96.7305 150.556 96.3887 150.255 96.1562 149.886C95.9238 149.517 95.8076 149.127 95.8076 148.717H97.0791C97.0973 149.063 97.1976 149.339 97.3799 149.544C97.5622 149.744 97.7855 149.888 98.0498 149.975C98.3141 150.057 98.5762 150.098 98.8359 150.098C99.1823 150.098 99.4717 150.052 99.7041 149.961C99.9411 149.87 100.121 149.744 100.244 149.585C100.367 149.425 100.429 149.243 100.429 149.038Z" fill="white"/>
<defs>
<clipPath id="clip0_809_321">
<rect width="11" height="12" fill="white" transform="translate(27 140)"/>
</clipPath>
</defs>
</svg>
